<svg width="32" height="37" viewBox="0 0 32 37" fill="none" xmlns="http://www.w3.org/2000/svg">
    <path d="M13.7631 36C12.322 32.1476 10.8753 28.2965 9.44114 24.4414C6.69827 17.0645 3.96375 9.68494 1.22645 2.30536C1.17907 2.17772 1.1261 2.05146 1.08429 1.92108C0.843176 1.17447 1.12053 0.869791 1.90102 1.05095C3.22507 1.35975 4.54355 1.68364 5.86481 2.00617C11.9722 3.49526 18.0865 4.95965 24.1799 6.50089C25.2294 6.76577 26.2329 7.29004 27.1862 7.8198C28.2691 8.42367 29.2768 9.1593 30.3054 9.85512C31.0803 10.3794 31.2029 10.9599 30.6928 11.7189C25.3576 19.6502 20.0182 27.5774 14.6774 35.5059C14.5645 35.6747 14.4377 35.8339 14.3178 35.9986C14.1339 36 13.9485 36 13.7631 36ZM24.0768 7.61256C17.306 5.96427 10.6495 4.3448 3.99442 2.72532C3.97072 2.77061 3.94563 2.81453 3.92194 2.85982C7.77005 7.74843 11.6196 12.6384 15.4927 17.5586C18.3527 14.2442 21.1792 10.9682 24.0768 7.61256ZM13.5136 32.1572C13.5568 32.1531 13.6001 32.1489 13.6433 32.1448C13.6823 31.8772 13.7339 31.611 13.7561 31.3433C14.0962 27.285 14.4433 23.2254 14.7527 19.1643C14.7805 18.8061 14.6467 18.3574 14.4251 18.0719C11.7993 14.6902 9.14149 11.3332 6.49339 7.96939C5.34773 6.51461 4.20208 5.06121 3.05504 3.60643C3.0188 3.62564 2.98117 3.64485 2.94493 3.66407C6.4683 13.1613 9.99027 22.6586 13.5136 32.1572ZM29.09 12.0675C29.051 12.04 29.0134 12.0126 28.9744 11.9851C24.9493 14.1124 20.9381 16.2644 16.8865 18.3409C16.1353 18.7265 15.9025 19.2055 15.8426 19.959C15.5429 23.7002 15.2098 27.4388 14.892 31.1786C14.8363 31.836 14.7987 32.4948 14.7527 33.1536C14.7917 33.1632 14.8307 33.1728 14.8697 33.181C19.6098 26.1432 24.3499 19.1053 29.09 12.0675ZM25.3005 7.93508C22.828 10.8021 20.4517 13.5566 18.0767 16.3111C18.1116 16.344 18.1464 16.3769 18.1813 16.4112C21.8538 14.4679 25.5263 12.5245 29.2921 10.5317C27.9109 9.63416 26.6273 8.79835 25.3005 7.93508Z" fill="#C53027" stroke="#C53027"/>
</svg>
