<svg xmlns="http://www.w3.org/2000/svg" viewBox="0 0 436.5 430.53"><defs><style>.cls-1{fill:#e9d591;}.cls-2{fill:#e2c574;}.cls-3{fill:#2e140f;}.cls-4{fill:#2081e2;}</style></defs><title>open</title><g id="Capa_2" data-name="Capa 2"><g id="Capa_1-2" data-name="Capa 1"><polygon class="cls-1" points="427.4 408.71 9.11 422.08 35.34 183.39 34.88 12.5 406.31 8.24 406.93 233.01 427.4 408.71"/><polygon class="cls-2" points="215.64 19.93 78.84 36.12 75.98 182.65 63.59 384.02 388.51 378.41 367.41 235.88 343.29 39.07 245.41 19.28 395.2 19.28 398.81 233.49 418.3 400.85 21.09 411.48 43.47 183.82 43.03 20.56 215.64 19.93"/><path class="cls-3" d="M414.42,0l.64,232.52,21.44,184L0,430.53,27.21,183,26.74,4.45Zm3.88,400.85L398.81,233.49,395.2,19.28,43,20.56l.44,163.27,0,.45L21.09,411.48Z"/><polygon class="cls-3" points="39.56 59.8 107.49 52.27 35.91 42.9 39.56 59.8"/><polygon class="cls-3" points="402.46 86.12 331.63 81.11 403.2 71.96 402.46 86.12"/><polygon class="cls-3" points="405.39 103.77 363.32 98.75 405.83 89.61 405.39 103.77"/><polygon class="cls-3" points="21.52 389.09 63.59 384.02 21.07 374.93 21.52 389.09"/><path class="cls-4" d="M117.54,235a6.93,6.93,0,0,1-5.85-10.71l.78-1.23,48.93-76.55a6.95,6.95,0,0,1,12.2.91C180,161.63,190,188.19,185.84,206c-1.89,7.8-7.15,17.35-10.16,22.42-.61,1.15-1.29,2.3-2,3.42a7,7,0,0,1-5.81,3.12Z"/><path class="cls-4" d="M165.21,321.93A68.35,68.35,0,0,1,97,253.55v-1.12a7,7,0,0,1,6.95-7h54.65a7.05,7.05,0,0,1,5.17,2.29,7.23,7.23,0,0,1,1.85,5.53,13.53,13.53,0,0,0,1.4,7.62,14.07,14.07,0,0,0,12.54,7.83h21.78V258.17H179.91a7,7,0,0,1-5.76-10.92c.16-.25.34-.52.53-.79,0,0,.47-.7.5-.73,1.41-2,5.16-7.49,9.46-15.1a116.45,116.45,0,0,0,6.46-12.9l.09-.2c.26-.56.5-1.2.75-1.88l.49-1.35c.36-1,.69-1.87.92-2.69l.07-.25c.27-.79.51-1.7.75-2.58l.14-.54a49.31,49.31,0,0,0,1.14-11.05c0-1.55-.07-3.15-.21-4.64,0-.08,0-.17,0-.26-.06-1.6-.27-3.27-.5-5a1.37,1.37,0,0,0,0-.19c-.13-1.35-.38-2.76-.69-4.45,0-.05,0-.09,0-.14-.32-2-.78-4.21-1.45-6.87l-.22-.93c-.13-.47-.25-.94-.37-1.4-.3-1.12-.58-2.18-.92-3.24,0-.05,0-.1-.05-.15-1.41-4.89-3.09-9.87-5-14.79a.78.78,0,0,1-.05-.14c-.63-1.77-1.35-3.48-2.11-5.29-.88-2.13-1.76-4.09-2.61-6l-.66-1.47c-.55-1.09-1-2.1-1.49-3.12s-1-2.18-1.53-3.21a.91.91,0,0,1-.07-.14l-.39-.79c-.24-.46-.49-1-.73-1.53l-3.18-5.87a6.35,6.35,0,0,1,5.56-9.39,6.45,6.45,0,0,1,1.7.23l20.31,5.51a3.77,3.77,0,0,1,.58.14l.06,0v-5.34a16,16,0,0,1,15.9-16,15.66,15.66,0,0,1,11.28,4.73,16,16,0,0,1,4.62,11.28v14.5a4.81,4.81,0,0,1,.6.4l.79.59c.42.32.92.71,1.49,1.13l.14.11,1.09.9c.44.38.92.78,1.45,1.19l.09.07c2,1.62,4.42,3.71,7.16,6.21q1.19,1,2.16,2c4.39,4.1,7.89,7.65,11,11.16,1,1.17,2,2.36,3.11,3.66l1.06,1.27c.68.83,1.39,1.68,2.07,2.56l.68.92c1.07,1.41,2.18,2.88,3.22,4.47.2.32.43.65.66,1,.35.52.7,1,1,1.54,1.67,2.53,3.07,5,4.22,7.18l.09.18c.66,1.35,1.2,2.53,1.64,3.61a55,55,0,0,1,3.4,10.06,17.09,17.09,0,0,1,.58,2.79v0a23.11,23.11,0,0,1,.4,3.19,36.53,36.53,0,0,1-.64,11.21,39.89,39.89,0,0,1-1.3,4.61l-.18.52c-.42,1.21-.9,2.57-1.52,3.93a59.42,59.42,0,0,1-4.46,8.46c-.53.93-1.16,1.95-1.88,3-.39.57-.75,1.07-1.1,1.55s-.63.89-.92,1.32l-.11.15c-.87,1.19-1.81,2.44-2.79,3.61a43.33,43.33,0,0,1-2.8,3.5c-1.33,1.57-2.55,3-3.84,4.39-.94,1.09-1.79,2-2.58,2.81s-1.54,1.61-2.21,2.28l-.33.33c-1.39,1.38-2.53,2.44-3.46,3.29l-2.21,2a7,7,0,0,1-4.61,1.73H233.18v10.58h15.44a14,14,0,0,0,9.19-3.41l0,0a149.79,149.79,0,0,0,12.27-12.09,7,7,0,0,1,3.3-2l57.16-16.52a6.51,6.51,0,0,1,1.92-.28,7,7,0,0,1,6.95,7v12.12a7,7,0,0,1-4.2,6.41c-7.28,3.12-16.33,8.25-20,13.32-2.9,4-5.63,8.41-8.51,13-10.43,16.72-22.24,35.68-43.54,35.68Z"/><path class="cls-3" d="M332.5,229.13a12,12,0,0,0-3.41.49L272,246.12a12.15,12.15,0,0,0-5.74,3.52l0,.05a142.32,142.32,0,0,1-11.83,11.64l0,0a8.9,8.9,0,0,1-5.74,2.12H238.45v0h5.92a12.27,12.27,0,0,0,8.08-3l.19-.17,2.13-2c1-.88,2.17-2,3.61-3.44l.32-.32c.69-.69,1.47-1.46,2.3-2.37s1.74-1.82,2.71-3c1.32-1.43,2.54-2.85,3.86-4.4,1.14-1.27,2.13-2.57,3-3.73,1.08-1.29,2.06-2.61,2.9-3.75a3.37,3.37,0,0,0,.21-.31c.27-.39.56-.79.86-1.2s.74-1,1.11-1.58a.83.83,0,0,0,.08-.12c.76-1.14,1.44-2.22,2-3.24a62.93,62.93,0,0,0,4.76-9c.71-1.56,1.23-3,1.69-4.34l.15-.43s0-.08.05-.13a44.15,44.15,0,0,0,1.46-5.23,41.59,41.59,0,0,0,.73-12.72,28.77,28.77,0,0,0-.44-3.58,21.54,21.54,0,0,0-.69-3.34,60,60,0,0,0-3.65-10.8c-.49-1.17-1.06-2.44-1.76-3.87l-.18-.34c-1.13-2.1-2.65-4.84-4.43-7.55-.38-.6-.76-1.16-1.1-1.65-.21-.3-.41-.6-.6-.89-1.13-1.74-2.34-3.35-3.42-4.77l-.66-.87,0-.06c-.74-1-1.48-1.86-2.2-2.73l-1-1.2-.05-.07c-1.11-1.34-2.16-2.58-3.22-3.77-3.23-3.65-6.83-7.3-11.32-11.49q-1.05-1-2.31-2.13c-2.8-2.55-5.28-4.69-7.35-6.36l-.19-.15c-.41-.31-.82-.66-1.26-1s-.81-.69-1.19-1l-.29-.22-.76-.58V118.72a21.26,21.26,0,0,0-6.12-15,20.92,20.92,0,0,0-15.05-6.31,21.23,21.23,0,0,0-21.11,19.76l-14.37-3.89a11.37,11.37,0,0,0-3.07-.42,11.63,11.63,0,0,0-10.18,17.2l3,5.64c.27.61.55,1.15.77,1.6.11.21.22.42.32.64l.13.27c.24.48.49,1,.75,1.54a12.19,12.19,0,0,0-6.31-1.77h0a12.14,12.14,0,0,0-10.3,5.65L108,220.19l-.81,1.27a12.2,12.2,0,0,0,9.35,18.75H104a12.23,12.23,0,0,0-12.22,12.22v1.12a73.63,73.63,0,0,0,73.44,73.65h98c11.19,0,21-4.43,30.06-13.55,7-7.08,12.58-16,17.95-24.61,2.84-4.56,5.52-8.86,8.32-12.76s10.94-8.62,17.73-11.53l.07,0a12.27,12.27,0,0,0,7.37-11.24V241.36A12.25,12.25,0,0,0,332.5,229.13Zm-216.39-2,.81-1.28,48.92-76.53a1.69,1.69,0,0,1,1.42-.78,1.65,1.65,0,0,1,1.52,1c8.18,18.32,15.23,41.1,11.92,55.28-1.41,5.84-5.27,13.74-9.62,21-.56,1.07-1.18,2.11-1.83,3.12a1.69,1.69,0,0,1-1.4.73H117.54A1.67,1.67,0,0,1,116.11,227.14Zm218.07,26.34a1.73,1.73,0,0,1-1,1.58c-3.79,1.62-16.75,7.58-22.14,15.07-13.76,19.15-24.27,46.53-47.77,46.53h-98a63,63,0,0,1-62.9-63.11v-1.12a1.68,1.68,0,0,1,1.68-1.68h54.65a1.86,1.86,0,0,1,1.77,2.07,18.7,18.7,0,0,0,2,10.49A19.22,19.22,0,0,0,179.6,274h27.05V252.9H179.91a1.73,1.73,0,0,1-1.39-2.71c.29-.44.62-.91,1-1.43,2.53-3.59,6.14-9.18,9.73-15.53A120.11,120.11,0,0,0,196,219.76c.39-.83.69-1.68,1-2.51.52-1.47,1.07-2.84,1.45-4.22.39-1.16.7-2.37,1-3.51a54.4,54.4,0,0,0,1.29-12.33c0-1.68-.08-3.44-.23-5.12-.08-1.84-.31-3.67-.54-5.51-.16-1.62-.45-3.22-.75-4.91-.39-2.45-.93-4.88-1.55-7.34l-.21-.93c-.47-1.68-.85-3.28-1.39-5-1.53-5.28-3.29-10.42-5.14-15.23-.68-1.91-1.45-3.75-2.23-5.58-1.14-2.77-2.3-5.28-3.36-7.65-.54-1.09-1-2.07-1.47-3.08s-1.06-2.28-1.6-3.36c-.39-.83-.83-1.6-1.14-2.38l-3.3-6.1a1.08,1.08,0,0,1,.92-1.61,1.45,1.45,0,0,1,.29,0l20.68,5.61h.06l.07,0,2.73.75,3,.85,1.1.31V118.72A10.69,10.69,0,0,1,217.28,108a10.46,10.46,0,0,1,7.52,3.15,10.79,10.79,0,0,1,3.11,7.59V137l2.2.62a1.57,1.57,0,0,1,.5.25l2.3,1.74c.78.62,1.61,1.37,2.61,2.14,2,1.61,4.37,3.68,7,6,.69.6,1.37,1.22,2,1.84,3.36,3.13,7.13,6.8,10.72,10.86,1,1.14,2,2.3,3,3.51s2.06,2.46,3,3.68c1.22,1.62,2.53,3.3,3.67,5.06.54.83,1.16,1.68,1.68,2.51,1.47,2.22,2.77,4.52,4,6.82.53,1.06,1.07,2.22,1.53,3.36a49.87,49.87,0,0,1,3.15,9.34,11.16,11.16,0,0,1,.44,2.06V197a17.13,17.13,0,0,1,.39,2.92,31.05,31.05,0,0,1-.54,9.64,36.53,36.53,0,0,1-1.14,4c-.46,1.31-.93,2.68-1.53,4a54.47,54.47,0,0,1-4.15,7.88c-.52.93-1.14,1.91-1.76,2.84s-1.37,1.91-2,2.82c-.85,1.16-1.76,2.38-2.69,3.46a38.79,38.79,0,0,1-2.6,3.29c-1.3,1.52-2.54,3-3.83,4.36-.77.91-1.6,1.84-2.45,2.67s-1.68,1.76-2.46,2.53c-1.29,1.29-2.37,2.3-3.28,3.13l-2.13,1.95a1.73,1.73,0,0,1-1.14.43H227.91V274h20.71a19.39,19.39,0,0,0,12.6-4.66A149.92,149.92,0,0,0,274,256.76a1.66,1.66,0,0,1,.79-.48L332,239.74a1.47,1.47,0,0,1,.46-.07,1.69,1.69,0,0,1,1.68,1.69Z"/></g></g></svg>