<svg width="382" height="51" viewBox="0 0 382 51" fill="none" xmlns="http://www.w3.org/2000/svg">
<path d="M27.6758 13.0869C27.6758 11.8239 27.2721 10.8148 26.4648 10.0596H33.3984C32.6042 10.7497 31.9596 11.7132 31.4648 12.9502C31.2956 13.3669 31.1263 13.8161 30.957 14.2979C30.7878 14.7796 30.5924 15.4632 30.3711 16.3486L29.668 19.3955C29.3945 20.5674 29.1146 21.8434 28.8281 23.2236C27.3307 30.3851 26.4844 34.389 26.2891 35.2354C26.1068 36.0687 26.0156 36.8695 26.0156 37.6377C26.0156 38.3929 26.1849 39.1676 26.5234 39.9619L19.6875 39.9424C20 39.4606 20.1823 39.0114 20.2344 38.5947C20.2995 38.165 20.332 37.6442 20.332 37.0322C20.332 36.4202 20.2279 35.5088 20.0195 34.2979C19.8112 33.0869 19.5378 31.7067 19.1992 30.1572L16.7188 19.6104C14.7396 28.3343 13.6133 33.3278 13.3398 34.5908C13.0794 35.8538 12.9492 36.863 12.9492 37.6182C12.9492 38.3734 13.112 39.1546 13.4375 39.9619L6.60156 39.9424C7.03125 39.2523 7.24609 38.3278 7.24609 37.1689C7.24609 35.2419 6.38672 30.7627 4.66797 23.7314C2.88411 16.3617 1.36719 11.8044 0.117188 10.0596H7.05078C6.81641 10.6325 6.69922 11.3226 6.69922 12.1299C6.69922 12.9242 6.76432 13.7965 6.89453 14.7471C7.03776 15.6976 7.22005 16.7718 7.44141 17.9697C7.67578 19.1676 7.9362 20.4502 8.22266 21.8174L10.8789 33.4971C11.1133 32.4945 11.3607 31.3747 11.6211 30.1377C12.3503 26.596 12.8451 24.1156 13.1055 22.6963L13.7695 18.9658C14.1602 16.6742 14.3555 15.1247 14.3555 14.3174C14.3555 13.5101 14.3034 12.7354 14.1992 11.9932C14.1081 11.251 13.8607 10.6064 13.457 10.0596H20.7617C20.2148 11.0882 19.9414 12.2666 19.9414 13.5947C19.9414 14.5843 20.2539 16.5895 20.8789 19.6104L23.1445 30.2158L23.9648 33.751L25.6055 25.9385C25.8789 24.5322 26.1393 23.1455 26.3867 21.7783L27.0508 17.9893C27.4674 15.5023 27.6758 13.8682 27.6758 13.0869ZM50.8773 32.7158C51.1768 33.3148 51.3266 34.0244 51.3266 34.8447C51.3266 35.652 51.281 36.3356 51.1898 36.8955C51.0987 37.4554 50.9685 37.9632 50.7992 38.4189C50.4346 39.4346 49.9594 39.9424 49.3734 39.9424H34.1391C34.9333 39.096 35.643 37.9242 36.268 36.4268L37.9086 32.3643C41.6846 22.182 43.7615 16.5179 44.1391 15.3721C44.5167 14.2132 44.7055 13.4385 44.7055 13.0479C44.7055 12.6442 44.4776 12.3708 44.0219 12.2275C43.5792 12.0843 42.9216 12.0127 42.0492 12.0127C41.1768 12.0127 40.4477 12.1624 39.8617 12.4619C39.2888 12.7614 38.781 13.1781 38.3383 13.7119C37.5701 14.6104 36.8344 16.0622 36.1312 18.0674C35.7797 17.7158 35.6039 17.0322 35.6039 16.0166C35.6039 15.001 35.643 14.1807 35.7211 13.5557C35.8122 12.9307 35.9424 12.3577 36.1117 11.8369C36.4763 10.652 36.9841 10.0596 37.6352 10.0596H51.5805C50.9424 11.0361 50.337 12.221 49.7641 13.6143L48.2602 17.4033C46.1247 23.1715 44.7901 26.8174 44.2562 28.3408C42.9411 32.1429 42.1664 34.402 41.932 35.1182C41.6977 35.8343 41.5805 36.3421 41.5805 36.6416C41.5805 37.54 42.3096 37.9893 43.768 37.9893C45.4477 37.9893 46.8148 37.5921 47.8695 36.7979C48.8982 36.0296 49.9008 34.6689 50.8773 32.7158ZM64.3328 21.3877C62.8224 21.3877 62.0672 22.2796 62.0672 24.0635C62.0672 31.4593 62.1909 35.8148 62.4383 37.1299C62.5815 37.9242 62.7638 38.5166 62.9852 38.9072L63.5711 39.9424H56.6375C57.0542 38.9528 57.2951 38.126 57.3602 37.4619C57.4383 36.7979 57.5034 36.0882 57.5555 35.333C57.6596 33.7965 57.7117 31.7327 57.7117 29.1416C57.7117 26.0036 57.6596 23.139 57.5555 20.5479L57.3406 15.1768C57.2885 13.8226 57.1714 12.8786 56.9891 12.3447C56.7026 11.4984 56.2339 10.7367 55.5828 10.0596H65.9148C69.0659 10.0596 71.3445 10.3721 72.7508 10.9971C74.2352 11.6481 74.9773 12.7614 74.9773 14.3369C74.9773 15.7171 74.463 17.0127 73.4344 18.2236C72.4708 19.3434 71.2078 20.2354 69.6453 20.8994C69.8406 25.8994 71.4096 30.6976 74.3523 35.2939C75.6154 37.2861 76.9044 38.8356 78.2195 39.9424H70.8953C69.6193 38.1976 68.4409 34.6624 67.3602 29.3369C66.9956 27.488 66.7547 25.9515 66.6375 24.7275C66.5333 23.5036 66.4422 22.7679 66.3641 22.5205C66.299 22.2601 66.1883 22.0518 66.032 21.8955C65.7195 21.557 65.1531 21.3877 64.3328 21.3877ZM68.825 17.9111C69.1896 17.5205 69.4435 17.1038 69.5867 16.6611C69.743 16.2184 69.8211 15.7952 69.8211 15.3916C69.8211 14.9749 69.7625 14.5648 69.6453 14.1611C69.5411 13.7445 69.3263 13.3799 69.0008 13.0674C68.2846 12.3643 67.0346 12.0127 65.2508 12.0127C64.5867 12.0127 64.0464 12.0387 63.6297 12.0908C63.226 12.1429 62.907 12.2861 62.6727 12.5205C62.269 12.9111 62.0672 13.9072 62.0672 15.5088C62.0672 16.915 62.2169 17.8135 62.5164 18.2041C63.0503 18.8942 63.8576 19.2393 64.9383 19.2393C66.019 19.2393 66.8458 19.1156 67.4188 18.8682C68.0047 18.6077 68.4734 18.2887 68.825 17.9111ZM86.1281 15.3135L86.1477 34.7666C86.1607 35.5088 86.2453 36.0687 86.4016 36.4463C86.5578 36.8239 86.8833 37.0127 87.3781 37.0127C89.6958 37.0127 91.4992 35.5413 92.7883 32.5986C94.0383 29.734 94.6633 25.7627 94.6633 20.6846C94.6633 18.0153 94.3508 15.9906 93.7258 14.6104C92.8794 12.7484 91.4081 11.8174 89.3117 11.8174C87.9706 11.8174 87.1438 11.9736 86.8313 12.2861C86.5318 12.5986 86.3365 12.9893 86.2453 13.458C86.1672 13.9137 86.1281 14.5322 86.1281 15.3135ZM80.6984 39.9424C81.1151 38.9528 81.356 38.126 81.4211 37.4619C81.4992 36.7979 81.5643 36.0882 81.6164 35.333C81.7206 33.7965 81.7727 31.7327 81.7727 29.1416C81.7727 26.0036 81.7206 23.139 81.6164 20.5479L81.4016 15.1768C81.3495 13.8226 81.2323 12.8786 81.05 12.3447C80.7635 11.4984 80.2948 10.7367 79.6438 10.0596H90.3664C94.8195 10.0596 97.7297 11.8109 99.0969 15.3135C99.5786 16.5505 99.8195 18.0479 99.8195 19.8057C99.8195 29.6364 96.4862 35.8994 89.8195 38.5947C87.5669 39.5062 84.9172 39.9619 81.8703 39.9619C81.675 39.9619 81.4797 39.9619 81.2844 39.9619C81.0891 39.9619 80.8938 39.9554 80.6984 39.9424ZM110.052 29.5908C109.883 30.945 109.798 32.0257 109.798 32.833C109.798 33.6273 109.896 34.363 110.091 35.04C110.287 35.7171 110.567 36.3031 110.931 36.7979C111.713 37.8525 112.702 38.3799 113.9 38.3799C116.192 38.3799 117.338 37.1169 117.338 34.5908C117.338 32.5596 116.159 30.4046 113.802 28.126L111.771 26.1533C109.987 24.4346 108.77 23.0544 108.119 22.0127C106.83 19.9554 106.185 17.9111 106.185 15.8799C106.185 14.2262 106.719 12.8395 107.787 11.7197C109.076 10.3525 110.931 9.66895 113.353 9.66895C114.304 9.66895 115.02 9.71452 115.502 9.80566C116.4 9.97493 116.999 10.0596 117.298 10.0596C118.054 10.0596 118.64 9.8252 119.056 9.35645C119.213 9.18717 119.382 8.96582 119.564 8.69238C120.515 9.22624 120.99 11.1859 120.99 14.5713C120.99 16.7327 120.775 18.3278 120.345 19.3564C120.202 19.708 120.039 19.9294 119.857 20.0205C119.649 18.0544 119.011 16.2965 117.943 14.7471C116.693 12.9242 115.248 12.0127 113.607 12.0127C112.201 12.0127 111.335 12.6572 111.009 13.9463C110.918 14.3109 110.873 14.7666 110.873 15.3135C110.873 15.8473 111.035 16.4593 111.361 17.1494C111.686 17.8395 112.11 18.5296 112.63 19.2197C113.164 19.8968 113.776 20.5804 114.466 21.2705C116.55 23.4059 117.93 24.8512 118.607 25.6064C119.297 26.3617 119.909 27.1429 120.443 27.9502C121.615 29.7601 122.201 31.5114 122.201 33.2041C122.201 35.2484 121.407 36.9411 119.818 38.2822C118.177 39.6494 116.068 40.333 113.49 40.333C111.354 40.333 109.518 39.7992 107.982 38.7314C106.289 37.5596 105.443 36.0101 105.443 34.083C105.951 32.2731 107.058 30.945 108.763 30.0986C109.219 29.8643 109.649 29.695 110.052 29.5908ZM162.196 20.8213C163.498 20.1572 164.8 19.8252 166.102 19.8252C167.417 19.8252 168.479 19.9749 169.286 20.2744C170.093 20.5609 170.783 20.984 171.356 21.5439C172.554 22.7288 173.153 24.4215 173.153 26.6221C173.153 30.971 172.014 34.3434 169.735 36.7393C167.691 38.8747 165.139 39.9424 162.079 39.9424H156.766L157.137 39.0439C157.528 38.0934 157.756 37.1169 157.821 36.1143C157.886 35.0986 157.932 34.1742 157.958 33.3408C157.997 32.4945 158.029 31.583 158.055 30.6064C158.121 28.8486 158.153 27.1234 158.153 25.4307C158.153 23.738 158.147 22.4554 158.134 21.583C158.121 20.7106 158.108 19.8643 158.095 19.0439C158.016 15.945 157.886 14.0635 157.704 13.3994C157.535 12.7223 157.365 12.221 157.196 11.8955C157.04 11.557 156.858 11.2445 156.649 10.958L155.985 10.0596H163.114C162.632 11.7783 162.326 15.3656 162.196 20.8213ZM162.216 25.958L162.157 33.1455C162.157 35.6585 162.222 37.4229 162.352 38.4385C164.136 38.0479 165.568 36.8564 166.649 34.8643C167.73 32.8981 168.27 30.4762 168.27 27.5986C168.27 25.8148 168.134 24.5648 167.86 23.8486C167.6 23.1195 167.281 22.5921 166.903 22.2666C166.539 21.9411 166.096 21.7783 165.575 21.7783C165.067 21.7783 164.618 21.8695 164.227 22.0518C163.837 22.234 163.492 22.501 163.192 22.8525C162.541 23.6208 162.216 24.6559 162.216 25.958ZM189.655 33.4775L189.675 29.1416C189.675 26.4202 189.603 24.6429 189.46 23.8096C189.317 22.9762 189.2 22.3968 189.109 22.0713C189.03 21.7327 188.933 21.4202 188.816 21.1338L188.445 20.2158H194.206L194.109 21.1143C194.03 21.7393 193.978 22.6507 193.952 23.8486L193.874 26.8174C193.809 29.096 193.777 31.2249 193.777 33.2041C193.777 35.1833 193.653 36.876 193.405 38.2822C193.171 39.6885 192.852 40.9255 192.448 41.9932C192.045 43.0609 191.583 43.9788 191.062 44.7471C190.541 45.5283 189.994 46.1794 189.421 46.7002C188.432 47.6377 187.325 48.3148 186.101 48.7314C185.84 48.6273 185.586 48.432 185.339 48.1455C185.105 47.8721 184.961 47.6117 184.909 47.3643C186.055 46.7783 186.973 45.8799 187.663 44.6689C188.64 42.9502 189.258 40.4697 189.519 37.2275C188.008 39.2979 186.153 40.333 183.952 40.333C182.39 40.333 181.179 39.721 180.32 38.4971C179.499 37.3122 179.089 35.6846 179.089 33.6143V30.9775C179.089 30.3916 179.083 29.7926 179.07 29.1807V27.4033C179.043 26.2705 178.998 25.3916 178.933 24.7666C178.881 24.1286 178.816 23.6012 178.738 23.1846C178.672 22.7549 178.588 22.3773 178.484 22.0518C178.379 21.7132 178.262 21.4007 178.132 21.1143L177.702 20.2158H183.659C183.321 22.0778 183.152 25.5999 183.152 30.7822C183.152 32.8916 183.262 34.2979 183.484 35.001C183.705 35.7041 183.978 36.2184 184.304 36.5439C184.642 36.8564 185.072 37.0127 185.593 37.0127C186.114 37.0127 186.57 36.9346 186.96 36.7783C187.364 36.609 187.728 36.3877 188.054 36.1143C188.692 35.6195 189.226 34.9359 189.655 34.0635V33.4775ZM190.398 31.9346L190.28 32.4033L190.398 31.9346ZM230.863 32.7158C231.215 33.1976 231.391 33.8942 231.391 34.8057C231.391 35.7171 231.352 36.4463 231.273 36.9932C231.195 37.527 231.072 38.0153 230.902 38.458C230.512 39.4476 229.997 39.9424 229.359 39.9424H213.539C214.542 39.4085 215.206 38.8942 215.531 38.3994C216.143 37.4749 216.449 36.3031 216.449 34.8838C216.436 31.4072 216.43 28.2627 216.43 25.4502V15.1768C216.43 13.2367 216.124 11.8304 215.512 10.958C215.277 10.6455 214.997 10.346 214.672 10.0596H229.359C230.245 10.3721 230.85 11.4658 231.176 13.3408C231.267 13.8617 231.312 14.3695 231.312 14.8643C231.312 15.8799 231.163 16.6872 230.863 17.2861L229.809 15.1768C229.105 13.7965 228.096 12.8721 226.781 12.4033C226.052 12.1429 225.232 12.0127 224.32 12.0127C223.409 12.0127 222.758 12.0452 222.367 12.1104C221.977 12.1624 221.677 12.2992 221.469 12.5205C221.13 12.8981 220.961 13.6208 220.961 14.6885C220.961 15.7432 220.987 16.4788 221.039 16.8955C221.091 17.2992 221.215 17.6312 221.41 17.8916C221.814 18.3994 222.667 18.6533 223.969 18.6533H230.102C229.802 19.4085 229.496 19.9424 229.184 20.2549C228.559 20.8799 227.712 21.1924 226.645 21.1924C226.228 21.1924 225.831 21.1468 225.453 21.0557C224.75 20.8864 224.132 20.8018 223.598 20.8018C223.064 20.8018 222.621 20.8538 222.27 20.958C221.931 21.0492 221.664 21.1989 221.469 21.4072C221.13 21.7718 220.961 22.4294 220.961 23.3799V32.6963C220.961 35.1442 221.098 36.596 221.371 37.0518C221.645 37.5075 221.977 37.7809 222.367 37.8721C222.758 37.9502 223.409 37.9893 224.32 37.9893C225.232 37.9893 226.059 37.859 226.801 37.5986C227.543 37.3382 228.161 36.9736 228.656 36.5049C229.164 36.0361 229.581 35.4827 229.906 34.8447C230.232 34.1937 230.551 33.484 230.863 32.7158ZM240.959 18.6729C240.933 20.027 240.92 21.57 240.92 23.3018C240.92 25.7627 240.966 28.5817 241.057 31.7588C241.148 34.9229 241.22 36.7262 241.272 37.1689C241.324 37.5986 241.389 37.9762 241.467 38.3018C241.597 38.8356 241.799 39.3825 242.073 39.9424H236.838C237.229 39.1481 237.463 38.3734 237.541 37.6182C237.633 36.8499 237.704 36.0882 237.756 35.333C237.86 33.7965 237.913 31.7327 237.913 29.1416C237.913 26.0036 237.86 23.139 237.756 20.5479L237.541 15.1768C237.463 13.1976 237.151 11.7913 236.604 10.958C236.383 10.6455 236.109 10.346 235.784 10.0596H241.858C242.626 11.8304 243.44 13.5882 244.299 15.333L246.955 20.5283L252.659 31.0166C252.672 30.1963 252.678 29.3174 252.678 28.3799V25.333C252.678 18.8226 252.281 14.1221 251.487 11.2314C251.33 10.6976 251.161 10.307 250.979 10.0596L256.858 10.04C256.207 11.3421 255.797 15.0075 255.627 21.0361C255.601 21.9736 255.588 22.8721 255.588 23.7314L255.608 25.3721V33.3408C255.608 36.7132 255.634 38.9137 255.686 39.9424H252.522L246.858 29.3955L240.959 18.6729ZM278.595 8.69238C278.972 9.22624 279.161 10.0465 279.161 11.1533C279.161 12.2471 279.122 13.139 279.044 13.8291C278.979 14.5062 278.874 15.1637 278.731 15.8018C278.419 17.234 277.983 18.3148 277.423 19.0439C276.941 16.5309 276.316 14.734 275.548 13.6533C274.74 12.5596 273.686 12.0127 272.384 12.0127C271.095 12.0127 270.085 12.2601 269.356 12.7549C268.627 13.2497 268.067 13.9007 267.677 14.708C267.026 16.0492 266.7 18.0283 266.7 20.6455C266.7 23.2497 266.993 25.639 267.579 27.8135C268.178 29.9749 269.024 31.8369 270.118 33.3994C272.423 36.7197 275.424 38.3799 279.122 38.3799C279.07 38.9658 278.764 39.4736 278.204 39.9033C278.035 40.0335 277.852 40.1117 277.657 40.1377C272.93 40.1377 269.076 38.3994 266.095 34.9229C262.93 31.2249 261.348 26.1859 261.348 19.8057C261.348 16.4723 262.325 13.9658 264.278 12.2861C266.01 10.8018 268.38 10.0596 271.388 10.0596L274.649 10.0986C276.186 10.0986 277.266 9.87728 277.891 9.43457C278.152 9.23926 278.386 8.99186 278.595 8.69238ZM297.792 39.9424C297.961 39.1221 298.046 38.471 298.046 37.9893C298.046 37.4945 298.033 37.1234 298.007 36.876C297.994 36.6286 297.968 36.3682 297.929 36.0947C297.903 35.8083 297.864 35.4958 297.812 35.1572C297.773 34.8057 297.734 34.402 297.695 33.9463C297.395 30.8343 296.334 28.2757 294.511 26.2705C293.704 25.3851 292.831 24.7145 291.894 24.2588C290.956 23.79 290.181 23.5557 289.57 23.5557C288.971 23.5557 288.508 23.5947 288.183 23.6729C287.454 25.8604 287.089 28.1455 287.089 30.5283C287.089 32.6377 287.2 34.2132 287.421 35.2549C287.773 36.8174 288.313 38.3864 289.042 39.9619H283.202C283.515 39.1807 283.671 37.54 283.671 35.04C283.671 32.527 283.86 30.1833 284.237 28.0088C284.615 25.8213 285.103 23.8747 285.702 22.1689C286.314 20.4632 286.991 18.9723 287.734 17.6963C288.489 16.4072 289.237 15.2874 289.98 14.3369C290.735 13.3734 291.445 12.5531 292.109 11.876C292.773 11.1859 293.326 10.5804 293.769 10.0596H299.921C299.361 10.6976 299.081 11.5895 299.081 12.7354C299.081 13.2562 299.166 14.109 299.335 15.2939L299.823 18.8486C301.607 31.1403 303.202 38.1715 304.609 39.9424H297.792ZM288.984 21.6025C289.491 21.4072 290.025 21.3096 290.585 21.3096C291.145 21.3096 291.646 21.3486 292.089 21.4268C292.545 21.5049 292.994 21.6351 293.437 21.8174C294.387 22.182 295.181 22.7614 295.82 23.5557C295.181 20.2093 294.791 18.165 294.648 17.4229L293.964 14.0049L292.851 15.333C291.288 17.208 289.999 19.2979 288.984 21.6025ZM313.22 18.6729C313.194 20.027 313.181 21.57 313.181 23.3018C313.181 25.7627 313.227 28.5817 313.318 31.7588C313.409 34.9229 313.481 36.7262 313.533 37.1689C313.585 37.5986 313.65 37.9762 313.728 38.3018C313.858 38.8356 314.06 39.3825 314.334 39.9424H309.099C309.49 39.1481 309.724 38.3734 309.802 37.6182C309.893 36.8499 309.965 36.0882 310.017 35.333C310.121 33.7965 310.173 31.7327 310.173 29.1416C310.173 26.0036 310.121 23.139 310.017 20.5479L309.802 15.1768C309.724 13.1976 309.412 11.7913 308.865 10.958C308.643 10.6455 308.37 10.346 308.045 10.0596H314.119C314.887 11.8304 315.701 13.5882 316.56 15.333L319.216 20.5283L324.92 31.0166C324.933 30.1963 324.939 29.3174 324.939 28.3799V25.333C324.939 18.8226 324.542 14.1221 323.748 11.2314C323.591 10.6976 323.422 10.307 323.24 10.0596L329.119 10.04C328.468 11.3421 328.058 15.0075 327.888 21.0361C327.862 21.9736 327.849 22.8721 327.849 23.7314L327.869 25.3721V33.3408C327.869 36.7132 327.895 38.9137 327.947 39.9424H324.783L319.119 29.3955L313.22 18.6729ZM333.238 18.8486C332.926 18.0934 332.77 17.2015 332.77 16.1729C332.77 15.1442 332.809 14.3044 332.887 13.6533C332.965 12.9893 333.069 12.3903 333.199 11.8564C333.512 10.6585 333.896 10.0596 334.352 10.0596H351.559C352.314 10.0596 352.822 11.1794 353.082 13.4189C353.147 14.0439 353.18 14.6885 353.18 15.3525C353.18 16.915 353.01 18.0804 352.672 18.8486C351.552 15.3721 350.1 13.1455 348.316 12.1689C347.913 11.9346 347.516 11.8174 347.125 11.8174C346.734 11.8174 346.428 11.9215 346.207 12.1299C345.986 12.3252 345.803 12.6442 345.66 13.0869C345.426 13.8682 345.309 14.8057 345.309 15.8994V23.2236L345.328 29.2002V34.8643C345.328 36.1403 345.491 37.0843 345.816 37.6963C346.155 38.2952 346.493 38.751 346.832 39.0635C347.184 39.376 347.594 39.6689 348.062 39.9424H338.082C339.02 39.1742 339.618 38.5426 339.879 38.0479C340.361 37.1494 340.602 36.0882 340.602 34.8643V17.2666C340.602 15.2223 340.523 13.9072 340.367 13.3213C340.211 12.7223 340.022 12.3252 339.801 12.1299C339.579 11.9215 339.273 11.8174 338.883 11.8174C338.492 11.8174 338.095 11.9346 337.691 12.1689C337.288 12.3903 336.891 12.6898 336.5 13.0674C336.122 13.432 335.758 13.8617 335.406 14.3564C335.068 14.8382 334.755 15.3395 334.469 15.8604C333.909 16.889 333.499 17.8851 333.238 18.8486ZM368.022 38.3799C370.522 38.3799 372.136 35.333 372.866 29.2393C373.113 27.182 373.237 24.7601 373.237 21.9736C373.237 15.0726 371.485 11.6221 367.983 11.6221C364.48 11.6221 362.729 15.0726 362.729 21.9736C362.729 30.1117 363.777 35.2484 365.873 37.3838C366.524 38.0479 367.241 38.3799 368.022 38.3799ZM367.983 40.333C364.519 40.333 361.909 38.7054 360.151 35.4502C358.458 32.3122 357.612 27.82 357.612 21.9736C357.612 15.8929 359.48 12.0648 363.217 10.4893C364.532 9.94238 366.121 9.66895 367.983 9.66895C373.321 9.66895 376.583 12.0387 377.768 16.7783C378.159 18.3018 378.354 20.2614 378.354 22.6572C378.354 25.0531 378.146 27.3903 377.729 29.6689C377.312 31.9346 376.674 33.8617 375.815 35.4502C374.057 38.7054 371.446 40.333 367.983 40.333Z" fill="#3C070D"/>
<path d="M125.281 12.5889C125.172 12.3245 125.117 12.0124 125.117 11.6523C125.117 11.2923 125.131 10.9984 125.158 10.7705C125.186 10.5381 125.222 10.3285 125.268 10.1416C125.377 9.72233 125.511 9.5127 125.671 9.5127H131.693C131.958 9.5127 132.135 9.90462 132.227 10.6885C132.249 10.9072 132.261 11.1328 132.261 11.3652C132.261 11.9121 132.201 12.32 132.083 12.5889C131.691 11.3721 131.183 10.5928 130.559 10.251C130.417 10.1689 130.278 10.1279 130.142 10.1279C130.005 10.1279 129.898 10.1644 129.82 10.2373C129.743 10.3057 129.679 10.4173 129.629 10.5723C129.547 10.8457 129.506 11.1738 129.506 11.5566V14.1201L129.513 16.2119V18.1943C129.513 18.641 129.57 18.9714 129.684 19.1855C129.802 19.3952 129.921 19.5547 130.039 19.6641C130.162 19.7734 130.306 19.876 130.47 19.9717H126.977C127.305 19.7028 127.514 19.4818 127.605 19.3086C127.774 18.9941 127.858 18.6227 127.858 18.1943V12.0352C127.858 11.3197 127.831 10.8594 127.776 10.6543C127.722 10.4447 127.656 10.3057 127.578 10.2373C127.501 10.1644 127.394 10.1279 127.257 10.1279C127.12 10.1279 126.981 10.1689 126.84 10.251C126.699 10.3285 126.56 10.4333 126.423 10.5654C126.291 10.693 126.163 10.8434 126.04 11.0166C125.922 11.1852 125.812 11.3607 125.712 11.543C125.516 11.903 125.372 12.2516 125.281 12.5889ZM135.336 11.8848C135.318 12.5501 135.309 13.2383 135.309 13.9492C135.309 14.9199 135.325 15.9658 135.357 17.0869C135.389 18.208 135.412 18.846 135.425 19.001C135.443 19.1514 135.466 19.2835 135.494 19.3975C135.544 19.6071 135.626 19.7985 135.74 19.9717H133.832C134.006 19.7256 134.108 19.4613 134.14 19.1787C134.177 18.8962 134.204 18.6227 134.222 18.3584C134.259 17.8206 134.277 17.0983 134.277 16.1914C134.277 15.0931 134.259 14.0905 134.222 13.1836L134.147 11.3037C134.12 10.611 134.008 10.1188 133.812 9.82715C133.739 9.71777 133.646 9.61296 133.532 9.5127H136.205C136.382 10.292 136.603 11.1191 136.868 11.9941L138.112 15.9658L140.019 9.5127H142.685C142.462 9.70866 142.316 9.90918 142.247 10.1143C142.147 10.4287 142.09 10.7933 142.077 11.208L142.029 12.418C141.97 13.8353 141.94 15.0931 141.94 16.1914C141.94 18.0326 142.024 19.2015 142.193 19.6982C142.225 19.7894 142.266 19.8805 142.316 19.9717H140.163C140.286 19.7301 140.354 19.4704 140.368 19.1924C140.386 18.9098 140.402 18.5225 140.415 18.0303C140.47 16.4124 140.497 15.2344 140.497 14.4961C140.497 13.2793 140.486 12.3747 140.463 11.7822L137.948 19.9717L136.615 15.7744L135.336 11.8848Z" fill="#3C070D"/>
</svg>
