<svg xmlns="http://www.w3.org/2000/svg" viewBox="0 0 436.51 429.96"><defs><style>.cls-1{fill:#e9d591;}.cls-2{fill:#e2c574;}.cls-3{fill:#2e140f;}.cls-4{fill:#ae6d45;}</style></defs><title>s-off</title><g id="Capa_2" data-name="Capa 2"><g id="Capa_1-2" data-name="Capa 1"><polygon class="cls-1" points="9.09 408.73 427.4 421.53 400.84 182.87 401.06 11.99 29.63 8.23 29.31 233 9.09 408.73"/><polygon class="cls-2" points="220.31 19.66 357.13 35.66 360.2 182.19 372.86 383.54 47.94 378.37 68.84 235.82 92.69 38.97 190.55 19.05 40.75 19.26 37.44 233.47 18.18 400.85 415.39 410.95 392.71 183.32 392.92 20.05 220.31 19.66"/><path class="cls-3" d="M21.51,0l-.32,232.52L0,416.6,436.51,430,409,182.42l.23-178.5ZM18.18,400.85,37.44,233.47,40.75,19.26l352.17.79-.21,163.27.05.46L415.39,411Z"/><polygon class="cls-3" points="396.45 59.29 328.51 51.85 400.08 42.39 396.45 59.29"/><polygon class="cls-3" points="33.59 86.1 104.41 81 32.83 71.95 33.59 86.1"/><polygon class="cls-3" points="30.68 103.76 72.74 98.68 30.22 89.6 30.68 103.76"/><polygon class="cls-3" points="414.93 388.55 372.86 383.54 415.37 374.4 414.93 388.55"/><path class="cls-4" d="M214.14,316.37a15.37,15.37,0,0,1-11.39-5.07L174,279.37,111.34,282h-.64a15.37,15.37,0,0,1-15.21-13.36l-9.16-70.38a15.29,15.29,0,0,1,12.6-17.09l66.31-11.47L184.09,131a15.4,15.4,0,0,1,12.39-8.55l20.17-1.85a13.31,13.31,0,0,1,1.41-.07,15.26,15.26,0,0,1,15.27,13.94l15,163.38a15.37,15.37,0,0,1-13.88,16.68l-18.9,1.73A13.31,13.31,0,0,1,214.14,316.37Z"/><path class="cls-3" d="M218.06,127.07a8.86,8.86,0,0,1,8.8,8l15,163.37a8.85,8.85,0,0,1-8,9.61L215,309.83a7.32,7.32,0,0,1-.81,0,8.82,8.82,0,0,1-6.56-2.92l-30.84-34.2-65.67,2.72h-.37a8.85,8.85,0,0,1-8.77-7.7l-9.16-70.37a8.86,8.86,0,0,1,7.27-9.86l69.59-12,20.3-41.63a8.84,8.84,0,0,1,7.14-4.93l20.17-1.85a7.63,7.63,0,0,1,.82,0m0-13q-1,0-2,.09L195.88,116a21.94,21.94,0,0,0-17.63,12.17l-17.39,35.65-63,10.9a21.8,21.8,0,0,0-17.94,24.34L89,269.46a21.9,21.9,0,0,0,21.66,19l.91,0L171.18,286l26.74,29.66a21.88,21.88,0,0,0,16.22,7.22c.67,0,1.34,0,2-.09L235.05,321a21.86,21.86,0,0,0,19.75-23.75l-15-163.37a21.73,21.73,0,0,0-21.74-19.85Z"/><path class="cls-4" d="M288.09,292.35a13.73,13.73,0,0,1-12-7l-8.27-14.73a13.75,13.75,0,0,1,3.8-17.64,47.37,47.37,0,0,0-7.57-80.47,13.7,13.7,0,0,1-6.8-17L263,139.75A13.79,13.79,0,0,1,281.8,132a91.54,91.54,0,0,1,14.32,157.76,13.8,13.8,0,0,1-8,2.57Z"/><path class="cls-3" d="M275.94,137.22a7.35,7.35,0,0,1,3.11.69,85,85,0,0,1,13.31,146.57,7.35,7.35,0,0,1-4.27,1.37,7.22,7.22,0,0,1-6.32-3.68l-8.27-14.74a7.17,7.17,0,0,1,2-9.25,53.87,53.87,0,0,0-8.6-91.51,7.21,7.21,0,0,1-3.56-8.95L269.12,142a7.23,7.23,0,0,1,6.82-4.76m0-13a20.31,20.31,0,0,0-19,13.3l-5.74,15.75a20.17,20.17,0,0,0,10,25.07,40.88,40.88,0,0,1,6.53,69.45,20.27,20.27,0,0,0-5.56,26l8.27,14.73a20.28,20.28,0,0,0,29.44,6.55,98,98,0,0,0-15.33-168.95,20.21,20.21,0,0,0-8.61-1.91Z"/><polygon class="cls-1" points="134.78 347.81 130.22 343.74 152.27 311.63 123.95 338.14 116.44 331.42 123.78 319.14 110.41 326.03 107.36 323.31 138.84 289.66 304.74 93.07 310.14 97.92 305.95 107.4 314.08 101.46 322.42 108.94 305.04 134.92 327.29 113.08 335.31 119.16 172.67 299.44 134.78 347.81"/><polygon class="cls-3" points="122.78 341.81 118.22 337.74 140.27 305.63 111.95 332.14 104.44 325.42 111.78 313.14 98.41 320.03 95.36 317.31 126.83 283.66 292.74 87.07 298.14 91.92 293.95 101.4 302.08 95.46 310.42 102.94 293.04 128.92 315.29 107.08 323.31 113.16 160.67 293.44 122.78 341.81"/></g></g></svg>